<svg height="512" viewBox="0 0 512 512" width="512" xmlns="http://www.w3.org/2000/svg"><g id="Flat"><path d="m328 320v-232a16 16 0 0 0 -16-16 16 16 0 0 0 -16 16v232z" fill="#a3783a"/><path d="m296 144h32v176h-32z" fill="#ccdce4"/><rect fill="#58646f" height="464" rx="16" width="80" x="160" y="24"/><path d="m160 176h80v32h-80z" fill="#ffc11b"/><path d="m192 232h16v16h-16z" fill="#35505d"/><path d="m184 264h32v16h-32z" fill="#35505d"/><path d="m288 304h48a16 16 0 0 1 16 16v168a0 0 0 0 1 0 0h-80a0 0 0 0 1 0 0v-168a16 16 0 0 1 16-16z" fill="#58646f" transform="matrix(-1 0 0 -1 624 792)"/><path d="m272 304h80v32h-80z" fill="#ffc11b"/></g></svg>